<?xml version="1.0" encoding="UTF-8" standalone="no"?><svg xmlns="http://www.w3.org/2000/svg" xmlns:xlink="http://www.w3.org/1999/xlink" contentStyleType="text/css" height="199px" preserveAspectRatio="none" style="width:767px;height:199px;background:#FFFFFF;" version="1.1" viewBox="0 0 767 199" width="767px" zoomAndPan="magnify"><defs/><g><!--MD5=[02f7077ed79257124e28b791f351f1d7]
class Direction--><g id="elem_Direction"><rect codeLine="1" fill="#F1F1F1" height="96.8906" id="Direction" rx="2.5" ry="2.5" style="stroke:#181818;stroke-width:0.5;" width="117" x="7" y="79.302"/><ellipse cx="30.1" cy="95.302" fill="#ADD1B2" rx="11" ry="11" style="stroke:#181818;stroke-width:1.0;"/><path d="M32.4438,90.9739 C31.5063,90.5364 30.9125,90.3957 30.0375,90.3957 C27.4125,90.3957 25.4125,92.4739 25.4125,95.1926 L25.4125,96.3176 C25.4125,98.8957 27.5219,100.7864 30.4125,100.7864 C31.6313,100.7864 32.7875,100.4895 33.5375,99.9426 C34.1156,99.5364 34.4438,99.0832 34.4438,98.6926 C34.4438,98.2395 34.0531,97.8489 33.5844,97.8489 C33.3656,97.8489 33.1625,97.927 32.975,98.1145 C32.5219,98.5989 32.5219,98.5989 32.3344,98.6926 C31.9125,98.9582 31.225,99.0832 30.4594,99.0832 C28.4125,99.0832 27.1156,97.9895 27.1156,96.2864 L27.1156,95.1926 C27.1156,93.4114 28.3656,92.0989 30.1,92.0989 C30.6781,92.0989 31.2875,92.2551 31.7563,92.5051 C32.2406,92.7864 32.4125,93.0051 32.5063,93.4114 C32.5688,93.8176 32.6,93.9426 32.7406,94.0676 C32.8813,94.2082 33.1156,94.3176 33.3344,94.3176 C33.6,94.3176 33.8656,94.177 34.0375,93.9582 C34.1469,93.802 34.1781,93.6145 34.1781,93.1926 L34.1781,91.7707 C34.1781,91.3332 34.1625,91.2082 34.0688,91.052 C33.9125,90.7864 33.6313,90.6457 33.3344,90.6457 C33.0375,90.6457 32.8344,90.7395 32.6156,91.052 L32.4438,90.9739 Z " fill="#000000"/><text fill="#000000" font-family="sans-serif" font-size="14" lengthAdjust="spacing" textLength="67" x="45.9" y="100.1487">Direction</text><line style="stroke:#181818;stroke-width:0.5;" x1="8" x2="123" y1="111.302" y2="111.302"/><text fill="#000000" font-family="sans-serif" font-size="14" lengthAdjust="spacing" textLength="80" x="13" y="128.2971">String nom</text><text fill="#000000" font-family="sans-serif" font-size="14" lengthAdjust="spacing" textLength="105" x="13" y="144.594">String prenom</text><text fill="#000000" font-family="sans-serif" font-size="14" lengthAdjust="spacing" textLength="50" x="13" y="160.8909">int age</text><line style="stroke:#181818;stroke-width:0.5;" x1="8" x2="123" y1="168.1926" y2="168.1926"/></g><!--MD5=[8b45201adbb6513b887533143f113591]
class RH--><g id="elem_RH"><rect codeLine="8" fill="#F1F1F1" height="96.8906" id="RH" rx="2.5" ry="2.5" style="stroke:#181818;stroke-width:0.5;" width="117" x="159" y="79.302"/><ellipse cx="203.25" cy="95.302" fill="#ADD1B2" rx="11" ry="11" style="stroke:#181818;stroke-width:1.0;"/><path d="M205.5938,90.9739 C204.6563,90.5364 204.0625,90.3957 203.1875,90.3957 C200.5625,90.3957 198.5625,92.4739 198.5625,95.1926 L198.5625,96.3176 C198.5625,98.8957 200.6719,100.7864 203.5625,100.7864 C204.7813,100.7864 205.9375,100.4895 206.6875,99.9426 C207.2656,99.5364 207.5938,99.0832 207.5938,98.6926 C207.5938,98.2395 207.2031,97.8489 206.7344,97.8489 C206.5156,97.8489 206.3125,97.927 206.125,98.1145 C205.6719,98.5989 205.6719,98.5989 205.4844,98.6926 C205.0625,98.9582 204.375,99.0832 203.6094,99.0832 C201.5625,99.0832 200.2656,97.9895 200.2656,96.2864 L200.2656,95.1926 C200.2656,93.4114 201.5156,92.0989 203.25,92.0989 C203.8281,92.0989 204.4375,92.2551 204.9063,92.5051 C205.3906,92.7864 205.5625,93.0051 205.6563,93.4114 C205.7188,93.8176 205.75,93.9426 205.8906,94.0676 C206.0313,94.2082 206.2656,94.3176 206.4844,94.3176 C206.75,94.3176 207.0156,94.177 207.1875,93.9582 C207.2969,93.802 207.3281,93.6145 207.3281,93.1926 L207.3281,91.7707 C207.3281,91.3332 207.3125,91.2082 207.2188,91.052 C207.0625,90.7864 206.7813,90.6457 206.4844,90.6457 C206.1875,90.6457 205.9844,90.7395 205.7656,91.052 L205.5938,90.9739 Z " fill="#000000"/><text fill="#000000" font-family="sans-serif" font-size="14" lengthAdjust="spacing" textLength="20" x="223.75" y="100.1487">RH</text><line style="stroke:#181818;stroke-width:0.5;" x1="160" x2="275" y1="111.302" y2="111.302"/><text fill="#000000" font-family="sans-serif" font-size="14" lengthAdjust="spacing" textLength="80" x="165" y="128.2971">String nom</text><text fill="#000000" font-family="sans-serif" font-size="14" lengthAdjust="spacing" textLength="105" x="165" y="144.594">String prenom</text><text fill="#000000" font-family="sans-serif" font-size="14" lengthAdjust="spacing" textLength="50" x="165" y="160.8909">int age</text><line style="stroke:#181818;stroke-width:0.5;" x1="160" x2="275" y1="168.1926" y2="168.1926"/></g><!--MD5=[e8de2477f0619782a88ba6174d99456f]
class Artisan--><g id="elem_Artisan"><rect codeLine="15" fill="#F1F1F1" height="129.4844" id="Artisan" rx="2.5" ry="2.5" style="stroke:#181818;stroke-width:0.5;" width="167" x="311" y="63.302"/><ellipse cx="364.75" cy="79.302" fill="#ADD1B2" rx="11" ry="11" style="stroke:#181818;stroke-width:1.0;"/><path d="M367.0938,74.9739 C366.1563,74.5364 365.5625,74.3957 364.6875,74.3957 C362.0625,74.3957 360.0625,76.4739 360.0625,79.1926 L360.0625,80.3176 C360.0625,82.8957 362.1719,84.7864 365.0625,84.7864 C366.2813,84.7864 367.4375,84.4895 368.1875,83.9426 C368.7656,83.5364 369.0938,83.0832 369.0938,82.6926 C369.0938,82.2395 368.7031,81.8489 368.2344,81.8489 C368.0156,81.8489 367.8125,81.927 367.625,82.1145 C367.1719,82.5989 367.1719,82.5989 366.9844,82.6926 C366.5625,82.9582 365.875,83.0832 365.1094,83.0832 C363.0625,83.0832 361.7656,81.9895 361.7656,80.2864 L361.7656,79.1926 C361.7656,77.4114 363.0156,76.0989 364.75,76.0989 C365.3281,76.0989 365.9375,76.2551 366.4063,76.5051 C366.8906,76.7864 367.0625,77.0051 367.1563,77.4114 C367.2188,77.8176 367.25,77.9426 367.3906,78.0676 C367.5313,78.2082 367.7656,78.3176 367.9844,78.3176 C368.25,78.3176 368.5156,78.177 368.6875,77.9582 C368.7969,77.802 368.8281,77.6145 368.8281,77.1926 L368.8281,75.7707 C368.8281,75.3332 368.8125,75.2082 368.7188,75.052 C368.5625,74.7864 368.2813,74.6457 367.9844,74.6457 C367.6875,74.6457 367.4844,74.7395 367.2656,75.052 L367.0938,74.9739 Z " fill="#000000"/><text fill="#000000" font-family="sans-serif" font-size="14" lengthAdjust="spacing" textLength="51" x="385.25" y="84.1487">Artisan</text><line style="stroke:#181818;stroke-width:0.5;" x1="312" x2="477" y1="95.302" y2="95.302"/><text fill="#000000" font-family="sans-serif" font-size="14" lengthAdjust="spacing" textLength="80" x="317" y="112.2971">String nom</text><text fill="#000000" font-family="sans-serif" font-size="14" lengthAdjust="spacing" textLength="105" x="317" y="128.594">String prenom</text><text fill="#000000" font-family="sans-serif" font-size="14" lengthAdjust="spacing" textLength="50" x="317" y="144.8909">int age</text><text fill="#000000" font-family="sans-serif" font-size="14" lengthAdjust="spacing" textLength="155" x="317" y="161.1877">Double SalaireHoraire</text><text fill="#000000" font-family="sans-serif" font-size="14" lengthAdjust="spacing" textLength="150" x="317" y="177.4846">Double Coordonnées</text><line style="stroke:#181818;stroke-width:0.5;" x1="312" x2="477" y1="184.7864" y2="184.7864"/></g><!--MD5=[7231450f633845da6e92cf0373678125]
class Chantier--><g id="elem_Chantier"><rect codeLine="24" fill="#F1F1F1" height="96.8906" id="Chantier" rx="2.5" ry="2.5" style="stroke:#181818;stroke-width:0.5;" width="117" x="513" y="79.302"/><ellipse cx="538.35" cy="95.302" fill="#ADD1B2" rx="11" ry="11" style="stroke:#181818;stroke-width:1.0;"/><path d="M540.6938,90.9739 C539.7563,90.5364 539.1625,90.3957 538.2875,90.3957 C535.6625,90.3957 533.6625,92.4739 533.6625,95.1926 L533.6625,96.3176 C533.6625,98.8957 535.7719,100.7864 538.6625,100.7864 C539.8813,100.7864 541.0375,100.4895 541.7875,99.9426 C542.3656,99.5364 542.6938,99.0832 542.6938,98.6926 C542.6938,98.2395 542.3031,97.8489 541.8344,97.8489 C541.6156,97.8489 541.4125,97.927 541.225,98.1145 C540.7719,98.5989 540.7719,98.5989 540.5844,98.6926 C540.1625,98.9582 539.475,99.0832 538.7094,99.0832 C536.6625,99.0832 535.3656,97.9895 535.3656,96.2864 L535.3656,95.1926 C535.3656,93.4114 536.6156,92.0989 538.35,92.0989 C538.9281,92.0989 539.5375,92.2551 540.0063,92.5051 C540.4906,92.7864 540.6625,93.0051 540.7563,93.4114 C540.8188,93.8176 540.85,93.9426 540.9906,94.0676 C541.1313,94.2082 541.3656,94.3176 541.5844,94.3176 C541.85,94.3176 542.1156,94.177 542.2875,93.9582 C542.3969,93.802 542.4281,93.6145 542.4281,93.1926 L542.4281,91.7707 C542.4281,91.3332 542.4125,91.2082 542.3188,91.052 C542.1625,90.7864 541.8813,90.6457 541.5844,90.6457 C541.2875,90.6457 541.0844,90.7395 540.8656,91.052 L540.6938,90.9739 Z " fill="#000000"/><text fill="#000000" font-family="sans-serif" font-size="14" lengthAdjust="spacing" textLength="62" x="554.65" y="100.1487">Chantier</text><line style="stroke:#181818;stroke-width:0.5;" x1="514" x2="629" y1="111.302" y2="111.302"/><text fill="#000000" font-family="sans-serif" font-size="14" lengthAdjust="spacing" textLength="104" x="519" y="128.2971">Date DateDeb</text><text fill="#000000" font-family="sans-serif" font-size="14" lengthAdjust="spacing" textLength="95" x="519" y="144.594">Date DateFin</text><text fill="#000000" font-family="sans-serif" font-size="14" lengthAdjust="spacing" textLength="105" x="519" y="160.8909">String Adresse</text><line style="stroke:#181818;stroke-width:0.5;" x1="514" x2="629" y1="168.1926" y2="168.1926"/></g><!--MD5=[928769c2a9771c4ee8ae96e456e932d3]
link Direction to Artisan--><g id="link_Direction_Artisan"><path codeLine="31" d="M100.053,79.194 C115.762,61.221 135.997,42.902 159,33.302 C206.989,13.275 226.918,16.128 276,33.302 C293.254,39.339 309.87,49.059 324.923,60.018 " fill="none" id="Direction-to-Artisan" style="stroke:#181818;stroke-width:1.0;"/><polygon fill="#181818" points="329.127,63.139,324.2848,54.5627,325.1123,60.1587,319.5163,60.9862,329.127,63.139" style="stroke:#181818;stroke-width:1.0;"/><text fill="#000000" font-family="sans-serif" font-size="13" lengthAdjust="spacing" textLength="34" x="286.1175" y="52.2938">gérer</text></g><!--MD5=[30f01977220464bfca1ed9c7ad855f5a]
link Artisan to Chantier--><g id="link_Artisan_Chantier"><path codeLine="32" d="M478.16,127.802 C487.992,127.802 497.824,127.802 507.656,127.802 " fill="none" id="Artisan-to-Chantier" style="stroke:#181818;stroke-width:1.0;"/><polygon fill="#181818" points="512.798,127.802,503.798,123.802,507.798,127.802,503.798,131.802,512.798,127.802" style="stroke:#181818;stroke-width:1.0;"/><text fill="#000000" font-family="sans-serif" font-size="13" lengthAdjust="spacing" textLength="51" x="449.8379" y="116.5588">travaille</text></g><!--MD5=[6c3c4887ae1293f4631bdfb17c75262e]
link RH to Artisan--><g id="link_RH_Artisan"><path codeLine="33" d="M276.27,127.802 C286.102,127.802 295.934,127.802 305.766,127.802 " fill="none" id="RH-to-Artisan" style="stroke:#181818;stroke-width:1.0;"/><polygon fill="#181818" points="310.907,127.802,301.907,123.802,305.907,127.802,301.907,131.802,310.907,127.802" style="stroke:#181818;stroke-width:1.0;"/><text fill="#000000" font-family="sans-serif" font-size="13" lengthAdjust="spacing" textLength="95" x="209.1481" y="92.1774">calcule la paye</text></g><!--MD5=[35f9bab1317660a91cfc159d879b3087]
link Direction to Chantier--><g id="link_Direction_Chantier"><path codeLine="34" d="M100.053,79.194 C115.762,61.221 135.997,42.902 159,33.302 C224.42,6 412.58,6 478,33.302 C499.386,42.227 518.379,58.688 533.567,75.401 " fill="none" id="Direction-to-Chantier" style="stroke:#181818;stroke-width:1.0;"/><polygon fill="#181818" points="536.947,79.194,533.9447,69.8139,533.6201,75.4614,527.9726,75.1369,536.947,79.194" style="stroke:#181818;stroke-width:1.0;"/><text fill="#000000" font-family="sans-serif" font-size="13" lengthAdjust="spacing" textLength="213" x="547.0645" y="68.3877">gère et leurs affecte des artisans</text></g><!--MD5=[17fad908d3d276fd67a4cad5f448666d]
@startuml
Class Direction {

    String nom
    String prenom
    int age
}

Class RH {

    String nom
    String prenom
    int age
}

Class Artisan {
    
    String nom
    String prenom
    int age
    Double SalaireHoraire
    Double Coordonnées
}

Class Chantier {

    Date DateDeb
    Date DateFin
    String Adresse
}

Direction ->  "gérer" Artisan
Artisan -> "travaille " Chantier
RH -> "calcule la paye" Artisan
Direction -> "gère et leurs affecte des artisans" Chantier
@enduml

PlantUML version 1.2022.2(Sat Mar 05 16:30:19 UTC 2022)
(GPL source distribution)
Java Runtime: Java(TM) SE Runtime Environment
JVM: Java HotSpot(TM) 64-Bit Server VM
Default Encoding: UTF-8
Language: en
Country: US
--></g></svg>